<?xml version="1.0" encoding="iso-8859-1"?>
<!-- Generator: Adobe Illustrator 19.0.0, SVG Export Plug-In . SVG Version: 6.00 Build 0)  -->
<svg version="1.1" id="Capa_1" xmlns="http://www.w3.org/2000/svg" xmlns:xlink="http://www.w3.org/1999/xlink" x="0px" y="0px"
	 viewBox="0 0 442.88 442.88" style="enable-background:new 0 0 442.88 442.88;" xml:space="preserve">
<g>
	<g>
		<path d="M408.064,224v-9.216c0.512-103.936-82.944-188.416-186.368-188.416S34.816,111.36,34.816,215.296v9.216
			C13.824,235.264,0,256.768,0,281.344v71.68c0,34.816,28.672,63.488,63.488,63.488h50.688c14.848,0,26.624-12.288,26.624-26.624
			v-145.92c0-14.848-12.288-26.624-26.624-26.624h-25.6v-2.56c0-74.24,59.392-135.168,133.12-135.168s133.12,60.928,133.12,135.168
			v2.56h-25.6c-14.848,0-26.624,12.288-26.624,26.624v145.408c0,14.848,12.288,26.624,26.624,26.624h50.176
			c34.816,0,63.488-28.672,63.488-63.488v-71.68C442.88,256.256,429.056,234.752,408.064,224z"/>
	</g>
</g>
<g>
</g>
<g>
</g>
<g>
</g>
<g>
</g>
<g>
</g>
<g>
</g>
<g>
</g>
<g>
</g>
<g>
</g>
<g>
</g>
<g>
</g>
<g>
</g>
<g>
</g>
<g>
</g>
<g>
</g>
</svg>
