<svg id="Capa_1" enable-background="new 0 0 511.565 511.565" height="512" viewBox="0 0 511.565 511.565" width="512" xmlns="http://www.w3.org/2000/svg"><g><path d="m388.421 15c0-8.284-6.716-15-15-15h-16.126c-8.284 0-15 6.716-15 15 0 5.78 3.274 10.787 8.064 13.292v126.042h-107.119v-17.927c0-8.284-6.716-15-15-15s-15 6.716-15 15v17.927h-30v-17.927c0-8.284-6.716-15-15-15s-15 6.716-15 15v17.927h-15.096c-8.284 0-15 6.716-15 15v269.14c0 40.367 32.724 73.091 73.091 73.091h111.127c40.367 0 73.091-32.724 73.091-73.091l-.095-410.182c4.79-2.505 8.063-7.513 8.063-13.292zm-171.266 424.037h-18.65c-8.284 0-15-6.716-15-15s6.716-15 15-15h18.65c8.284 0 15 6.716 15 15s-6.716 15-15 15zm0-60h-18.65c-8.284 0-15-6.716-15-15s6.716-15 15-15h18.65c8.284 0 15 6.716 15 15s-6.716 15-15 15zm80 60h-18.65c-8.284 0-15-6.716-15-15s6.716-15 15-15h18.65c8.284 0 15 6.716 15 15s-6.716 15-15 15zm0-60h-18.65c-8.284 0-15-6.716-15-15s6.716-15 15-15h18.65c8.284 0 15 6.716 15 15s-6.716 15-15 15zm22.939-75c0 8.284-6.716 15-15 15h-106.59c-8.284 0-15-6.716-15-15v-62.274c0-8.284 6.716-15 15-15h106.59c8.284 0 15 6.716 15 15z"/><path d="m213.504 256.763h76.59v32.274h-76.59z"/></g></svg>