<?xml version="1.0" encoding="iso-8859-1"?>
<!-- Generator: Adobe Illustrator 19.0.0, SVG Export Plug-In . SVG Version: 6.00 Build 0)  -->
<svg version="1.1" id="Capa_1" xmlns="http://www.w3.org/2000/svg" xmlns:xlink="http://www.w3.org/1999/xlink" x="0px" y="0px"
	 viewBox="0 0 384 384" style="enable-background:new 0 0 384 384;" xml:space="preserve">
<g>
	<g>
		<path d="M183.328,57.779c-5.304-2.744-11.744-2.296-16.608,1.192L58.608,136.003H16c-8.832,0-16,7.168-16,16v80
			c0,8.832,7.168,16,16,16h42.608l108.104,77.032c2.768,1.968,6.024,2.968,9.288,2.968c2.504,0,5.024-0.584,7.328-1.776
			c5.328-2.744,8.672-8.232,8.672-14.224v-240C192,66.011,188.656,60.523,183.328,57.779z M56,216.003H32v-48h24V216.003z
			 M160,280.955l-72-51.304v-75.296l72-51.304V280.955z"/>
	</g>
</g>
<g>
	<g>
		<path d="M251.264,136.995c-6.288-6.224-16.408-6.176-22.632,0.104c-6.216,6.28-6.168,16.408,0.104,22.624
			c8.768,8.688,13.592,20.152,13.592,32.288s-4.832,23.6-13.592,32.288c-6.272,6.208-6.32,16.336-0.104,22.616
			c3.136,3.16,7.248,4.736,11.368,4.736c4.072,0,8.144-1.544,11.264-4.64c14.864-14.736,23.064-34.28,23.064-55.008
			C274.328,171.275,266.136,151.731,251.264,136.995z"/>
	</g>
</g>
<g>
	<g>
		<path d="M289.904,98.843c-6.312-6.184-16.44-6.096-22.624,0.216c-6.184,6.312-6.096,16.44,0.216,22.624
			c19.128,18.76,29.672,43.736,29.672,70.32s-10.536,51.56-29.672,70.328c-6.312,6.184-6.408,16.32-0.216,22.624
			c3.136,3.192,7.272,4.8,11.424,4.8c4.048,0,8.088-1.52,11.2-4.576c25.32-24.832,39.264-57.92,39.264-93.168
			S315.224,123.675,289.904,98.843z"/>
	</g>
</g>
<g>
	<g>
		<path d="M328.784,60.603c-6.296-6.192-16.424-6.12-22.624,0.176c-6.2,6.296-6.128,16.424,0.168,22.632
			C335.784,112.403,352,150.971,352,192.003s-16.216,79.6-45.672,108.6c-6.296,6.2-6.376,16.336-0.168,22.632
			c3.128,3.176,7.264,4.768,11.392,4.768c4.056,0,8.112-1.528,11.224-4.6C364.392,288.339,384,241.675,384,192.003
			S364.392,95.667,328.784,60.603z"/>
	</g>
</g>
<g>
</g>
<g>
</g>
<g>
</g>
<g>
</g>
<g>
</g>
<g>
</g>
<g>
</g>
<g>
</g>
<g>
</g>
<g>
</g>
<g>
</g>
<g>
</g>
<g>
</g>
<g>
</g>
<g>
</g>
</svg>
